<?xml version="1.0" encoding="utf-8"?>
<!-- Generator: Adobe Illustrator 28.0.0, SVG Export Plug-In . SVG Version: 6.00 Build 0)  -->
<svg version="1.1" id="Layer_1" xmlns="http://www.w3.org/2000/svg" xmlns:xlink="http://www.w3.org/1999/xlink" x="0px" y="0px"
	 viewBox="0 0 414 394" style="enable-background:new 0 0 414 394;" xml:space="preserve">
<style type="text/css">
	.st0{fill:none;}
	.st1{clip-path:url(#SVGID_00000057142615425928942570000002785219265211149457_);}
	.st2{filter:url(#Adobe_OpacityMaskFilter);}
	.st3{mask:url(#_x34_03e87c476_00000084489781423259038320000007422237504841098130_);}
	.st4{fill:url(#SVGID_00000005977758029575568460000014531277017780995201_);}
	.st5{clip-path:url(#SVGID_00000179642113243947429170000017073710222866962615_);}
	.st6{filter:url(#b44ac51a7e);}
	.st7{mask:url(#c163e0c207_00000031916408025791203220000018235666292846463159_);}
	.st8{mask:url(#ed500764fa_00000066493178336953541580000012120534140074307253_);}
	.st9{clip-path:url(#SVGID_00000163070484221977119830000006757437150112463255_);}
	.st10{clip-path:url(#SVGID_00000090265074868016579560000010303351208358805685_);}
	.st11{fill:url(#SVGID_00000151514764674149855380000007585665718979712675_);}
</style>
<filter  height="100%" id="b44ac51a7e" width="100%" x="0%" y="0%">
	<feColorMatrix  color-interpolation-filters="sRGB" values="0 0 0 0 1 0 0 0 0 1 0 0 0 0 1 0 0 0 1 0"></feColorMatrix>
</filter>
<pattern  x="-44" y="462" width="188" height="93.3" patternUnits="userSpaceOnUse" id="_x34_a514b5b4b" viewBox="266 -529.9 188 93.3" style="overflow:visible;">
	<g>
		<rect x="266" y="-529.9" class="st0" width="188" height="93.3"/>
		<g>
			<g>
				<defs>
					<rect id="SVGID_1_" x="266" y="-529.9" width="188" height="93.3"/>
				</defs>
				<clipPath id="SVGID_00000171710962558560882070000018400303614982987692_">
					<use xlink:href="#SVGID_1_"  style="overflow:visible;"/>
				</clipPath>
				<g style="clip-path:url(#SVGID_00000171710962558560882070000018400303614982987692_);">
					<defs>
						<filter id="Adobe_OpacityMaskFilter" filterUnits="userSpaceOnUse" x="0" y="0" width="720" height="720">
							<feColorMatrix  type="matrix" values="1 0 0 0 0  0 1 0 0 0  0 0 1 0 0  0 0 0 1 0"/>
						</filter>
					</defs>
					
						<mask maskUnits="userSpaceOnUse" x="0" y="0" width="720" height="720" id="_x34_03e87c476_00000084489781423259038320000007422237504841098130_">
						<g class="st2">
							
								<image style="overflow:visible;" width="188" height="93" xlink:href="CDE83EC.png"  transform="matrix(1 0 0 -1 266 -436.6134)">
							</image>
						</g>
					</mask>
					<g class="st3">
						
							<linearGradient id="SVGID_00000157988203464551647300000012450073530485668500_" gradientUnits="userSpaceOnUse" x1="-9251.0703" y1="8416.3037" x2="-8765.2412" y2="8416.3037" gradientTransform="matrix(0.387 0 0 0.387 3845.8684 -3616.8403)">
							<stop  offset="0" style="stop-color:#FF8142"/>
							<stop  offset="3.906250e-03" style="stop-color:#FF8242"/>
							<stop  offset="7.812500e-03" style="stop-color:#FF8442"/>
							<stop  offset="1.171880e-02" style="stop-color:#FF8841"/>
							<stop  offset="1.562500e-02" style="stop-color:#FF8C41"/>
							<stop  offset="1.953130e-02" style="stop-color:#FF9040"/>
							<stop  offset="2.343750e-02" style="stop-color:#FF943F"/>
							<stop  offset="2.734380e-02" style="stop-color:#FF983F"/>
							<stop  offset="3.125000e-02" style="stop-color:#FF9C3E"/>
							<stop  offset="3.515630e-02" style="stop-color:#FFA03E"/>
							<stop  offset="3.906250e-02" style="stop-color:#FFA43D"/>
							<stop  offset="4.296880e-02" style="stop-color:#FFA83D"/>
							<stop  offset="4.687500e-02" style="stop-color:#FFAC3C"/>
							<stop  offset="5.078130e-02" style="stop-color:#FFB03B"/>
							<stop  offset="5.468750e-02" style="stop-color:#FFB43B"/>
							<stop  offset="5.859380e-02" style="stop-color:#FFB83A"/>
							<stop  offset="6.250000e-02" style="stop-color:#FFBC3A"/>
							<stop  offset="6.640630e-02" style="stop-color:#FFC039"/>
							<stop  offset="7.031250e-02" style="stop-color:#FFC439"/>
							<stop  offset="7.421880e-02" style="stop-color:#FFC838"/>
							<stop  offset="7.812500e-02" style="stop-color:#FFCC38"/>
							<stop  offset="8.203121e-02" style="stop-color:#FFCD37"/>
							<stop  offset="8.593750e-02" style="stop-color:#FFCF37"/>
							<stop  offset="9.375000e-02" style="stop-color:#FFCF37"/>
							<stop  offset="0.125" style="stop-color:#FFCF37"/>
							<stop  offset="0.1875" style="stop-color:#FFCF37"/>
							<stop  offset="0.2031" style="stop-color:#FFCF37"/>
							<stop  offset="0.207" style="stop-color:#FFCD37"/>
							<stop  offset="0.2109" style="stop-color:#FFCB38"/>
							<stop  offset="0.2148" style="stop-color:#FFC838"/>
							<stop  offset="0.2188" style="stop-color:#FFC539"/>
							<stop  offset="0.2227" style="stop-color:#FFC23A"/>
							<stop  offset="0.2266" style="stop-color:#FFBF3A"/>
							<stop  offset="0.2305" style="stop-color:#FFBC3B"/>
							<stop  offset="0.2344" style="stop-color:#FFB93B"/>
							<stop  offset="0.2383" style="stop-color:#FFB63C"/>
							<stop  offset="0.2422" style="stop-color:#FFB33D"/>
							<stop  offset="0.2461" style="stop-color:#FFB03D"/>
							<stop  offset="0.25" style="stop-color:#FFAE3E"/>
							<stop  offset="0.2539" style="stop-color:#FFAB3E"/>
							<stop  offset="0.2578" style="stop-color:#FFA83F"/>
							<stop  offset="0.2617" style="stop-color:#FFA540"/>
							<stop  offset="0.2656" style="stop-color:#FFA240"/>
							<stop  offset="0.2695" style="stop-color:#FF9F41"/>
							<stop  offset="0.2734" style="stop-color:#FF9C41"/>
							<stop  offset="0.2773" style="stop-color:#FF9942"/>
							<stop  offset="0.2812" style="stop-color:#FF9643"/>
							<stop  offset="0.2852" style="stop-color:#FF9343"/>
							<stop  offset="0.2891" style="stop-color:#FF9044"/>
							<stop  offset="0.293" style="stop-color:#FF8D44"/>
							<stop  offset="0.2969" style="stop-color:#FF8A45"/>
							<stop  offset="0.3008" style="stop-color:#FF8746"/>
							<stop  offset="0.3047" style="stop-color:#FF8446"/>
							<stop  offset="0.3086" style="stop-color:#FF8147"/>
							<stop  offset="0.3125" style="stop-color:#FF7E47"/>
							<stop  offset="0.3164" style="stop-color:#FF7B48"/>
							<stop  offset="0.3203" style="stop-color:#FF7849"/>
							<stop  offset="0.3242" style="stop-color:#FF7549"/>
							<stop  offset="0.3281" style="stop-color:#FF724A"/>
							<stop  offset="0.332" style="stop-color:#FF6F4A"/>
							<stop  offset="0.3359" style="stop-color:#FF6C4B"/>
							<stop  offset="0.3398" style="stop-color:#FF694C"/>
							<stop  offset="0.3438" style="stop-color:#FF664C"/>
							<stop  offset="0.3477" style="stop-color:#FF634D"/>
							<stop  offset="0.3516" style="stop-color:#FF604D"/>
							<stop  offset="0.3555" style="stop-color:#FF5D4E"/>
							<stop  offset="0.3594" style="stop-color:#FF5A4F"/>
							<stop  offset="0.3633" style="stop-color:#FF594F"/>
							<stop  offset="0.3672" style="stop-color:#FF584F"/>
							<stop  offset="0.375" style="stop-color:#FF584F"/>
							<stop  offset="0.5" style="stop-color:#FF584F"/>
							<stop  offset="0.5078" style="stop-color:#FF584F"/>
							<stop  offset="0.5156" style="stop-color:#FF594F"/>
							<stop  offset="0.5234" style="stop-color:#FF5A4F"/>
							<stop  offset="0.5312" style="stop-color:#FF5A4E"/>
							<stop  offset="0.5391" style="stop-color:#FF5B4E"/>
							<stop  offset="0.5469" style="stop-color:#FF5C4E"/>
							<stop  offset="0.5547" style="stop-color:#FF5C4E"/>
							<stop  offset="0.5625" style="stop-color:#FF5D4E"/>
							<stop  offset="0.5703" style="stop-color:#FF5D4D"/>
							<stop  offset="0.5781" style="stop-color:#FF5E4D"/>
							<stop  offset="0.5859" style="stop-color:#FF5F4D"/>
							<stop  offset="0.5938" style="stop-color:#FF5F4D"/>
							<stop  offset="0.6016" style="stop-color:#FF604C"/>
							<stop  offset="0.6094" style="stop-color:#FF614C"/>
							<stop  offset="0.6172" style="stop-color:#FF614C"/>
							<stop  offset="0.625" style="stop-color:#FF624C"/>
							<stop  offset="0.6328" style="stop-color:#FF634C"/>
							<stop  offset="0.6406" style="stop-color:#FF634B"/>
							<stop  offset="0.6484" style="stop-color:#FF644B"/>
							<stop  offset="0.6562" style="stop-color:#FF654B"/>
							<stop  offset="0.6641" style="stop-color:#FF654B"/>
							<stop  offset="0.6719" style="stop-color:#FF664B"/>
							<stop  offset="0.6797" style="stop-color:#FF674A"/>
							<stop  offset="0.6875" style="stop-color:#FF674A"/>
							<stop  offset="0.6953" style="stop-color:#FF684A"/>
							<stop  offset="0.7031" style="stop-color:#FF684A"/>
							<stop  offset="0.7109" style="stop-color:#FF694A"/>
							<stop  offset="0.7188" style="stop-color:#FF6A49"/>
							<stop  offset="0.7266" style="stop-color:#FF6A49"/>
							<stop  offset="0.7344" style="stop-color:#FF6B49"/>
							<stop  offset="0.7422" style="stop-color:#FF6C49"/>
							<stop  offset="0.75" style="stop-color:#FF6C49"/>
							<stop  offset="0.7578" style="stop-color:#FF6D48"/>
							<stop  offset="0.7656" style="stop-color:#FF6E48"/>
							<stop  offset="0.7734" style="stop-color:#FF6E48"/>
							<stop  offset="0.7812" style="stop-color:#FF6F48"/>
							<stop  offset="0.7891" style="stop-color:#FF7048"/>
							<stop  offset="0.7969" style="stop-color:#FF7047"/>
							<stop  offset="0.8047" style="stop-color:#FF7147"/>
							<stop  offset="0.8125" style="stop-color:#FF7247"/>
							<stop  offset="0.8203" style="stop-color:#FF7247"/>
							<stop  offset="0.8281" style="stop-color:#FF7347"/>
							<stop  offset="0.8359" style="stop-color:#FF7446"/>
							<stop  offset="0.8438" style="stop-color:#FF7446"/>
							<stop  offset="0.8516" style="stop-color:#FF7546"/>
							<stop  offset="0.8594" style="stop-color:#FF7546"/>
							<stop  offset="0.8672" style="stop-color:#FF7646"/>
							<stop  offset="0.875" style="stop-color:#FF7745"/>
							<stop  offset="0.8828" style="stop-color:#FF7745"/>
							<stop  offset="0.8906" style="stop-color:#FF7845"/>
							<stop  offset="0.8984" style="stop-color:#FF7945"/>
							<stop  offset="0.9062" style="stop-color:#FF7944"/>
							<stop  offset="0.9141" style="stop-color:#FF7A44"/>
							<stop  offset="0.9219" style="stop-color:#FF7B44"/>
							<stop  offset="0.9297" style="stop-color:#FF7B44"/>
							<stop  offset="0.9375" style="stop-color:#FF7C44"/>
							<stop  offset="0.9453" style="stop-color:#FF7D43"/>
							<stop  offset="0.9531" style="stop-color:#FF7D43"/>
							<stop  offset="0.9609" style="stop-color:#FF7E43"/>
							<stop  offset="0.9688" style="stop-color:#FF7F43"/>
							<stop  offset="0.9766" style="stop-color:#FF7F43"/>
							<stop  offset="0.9844" style="stop-color:#FF8042"/>
							<stop  offset="1" style="stop-color:#FF8142"/>
						</linearGradient>
						<rect y="-720" style="fill:url(#SVGID_00000157988203464551647300000012450073530485668500_);" width="720" height="720"/>
					</g>
				</g>
			</g>
		</g>
	</g>
</pattern>
<g>
	<defs>
		<rect id="SVGID_00000183940958539370551610000003545045992192666794_" x="-25" y="-38" width="462" height="500"/>
	</defs>
	<clipPath id="SVGID_00000097467573283135853420000004314409255458029747_">
		<use xlink:href="#SVGID_00000183940958539370551610000003545045992192666794_"  style="overflow:visible;"/>
	</clipPath>
	<g style="clip-path:url(#SVGID_00000097467573283135853420000004314409255458029747_);">
		<defs>
			
				<filter id="Adobe_OpacityMaskFilter_00000121241631419873441610000000046444034996948104_" filterUnits="userSpaceOnUse" x="-25" y="-87.1" width="462" height="598">
				<feColorMatrix  type="matrix" values="1 0 0 0 0  0 1 0 0 0  0 0 1 0 0  0 0 0 1 0"/>
			</filter>
		</defs>
		
			<mask maskUnits="userSpaceOnUse" x="-25" y="-87.1" width="462" height="598" id="c163e0c207_00000031916408025791203220000018235666292846463159_">
			<g class="st6">
				<g transform="matrix(0.194118, 0, 0, 0.194156, 14.221421, -36.808846)">
				</g>
			</g>
		</mask>
		<g class="st7">
			<g transform="matrix(0.194118, 0, 0, 0.194156, 14.221421, -36.808846)">
				<g style="enable-background:new    ;">
					
						<image style="overflow:visible;" width="1785" height="2310" xlink:href="CDE83EC.png"  transform="matrix(1.3333 0 0 1.3333 -202.2457 -258.9135)">
					</image>
				</g>
			</g>
		</g>
	</g>
</g>
<defs>
	
		<filter id="Adobe_OpacityMaskFilter_00000089561645557530039140000010995744791285779112_" filterUnits="userSpaceOnUse" x="12.9" y="-24.9" width="386" height="500">
		<feColorMatrix  type="matrix" values="1 0 0 0 0  0 1 0 0 0  0 0 1 0 0  0 0 0 1 0"/>
	</filter>
</defs>
<mask maskUnits="userSpaceOnUse" x="12.9" y="-24.9" width="386" height="500" id="ed500764fa_00000066493178336953541580000012120534140074307253_">
	<g class="st6">
		<g transform="matrix(0.189216, 0, 0, 0.189394, 42.656253, 9.825614)">
			
				<image style="overflow:visible;" width="386" height="500" xlink:href="CDE83EB.png"  transform="matrix(5.285 0 0 5.28 -157.3929 -183.3469)">
			</image>
		</g>
	</g>
</mask>
<g class="st8">
	<g transform="matrix(0.189216, 0, 0, 0.189394, 42.656253, 9.825614)">
		<g style="enable-background:new    ;">
			
				<image style="overflow:visible;" width="1530" height="1980" xlink:href="CDE83F4.png"  transform="matrix(1.3333 0 0 1.3333 -157.3929 -183.3469)">
			</image>
		</g>
	</g>
</g>
<g>
	<defs>
		<rect id="SVGID_00000169544343698347239420000005112912913495734155_" x="112.9" y="42.6" width="186" height="92"/>
	</defs>
	<clipPath id="SVGID_00000088839683321160287710000015604669965748355243_">
		<use xlink:href="#SVGID_00000169544343698347239420000005112912913495734155_"  style="overflow:visible;"/>
	</clipPath>
	<g style="clip-path:url(#SVGID_00000088839683321160287710000015604669965748355243_);">
		<g>
			<defs>
				<path id="SVGID_00000126287638719214714690000004405497240532654487_" d="M275.9,86.7C275.8,86.7,275.8,86.7,275.9,86.7
					L275.9,86.7c-0.1-0.1-0.1-0.1-0.1-0.1c0,0-0.1-0.1-0.1-0.1l0-0.1l-0.1-0.2c-0.3-0.4-0.6-0.9-0.9-1.6c-0.3-0.6-0.6-1.4-0.9-2.1
					c-0.3-0.8-0.6-1.6-1-2.5c-0.7-1.8-1.4-3.7-2.3-5.8c-0.4-1.1-0.9-2.1-1.5-3.3c-0.6-1.1-1.3-2.3-2.1-3.5l-0.3-0.5
					c-0.1-0.2-0.2-0.3-0.4-0.5c-0.2-0.3-0.5-0.6-0.8-0.9c-0.1-0.2-0.3-0.3-0.4-0.5s-0.3-0.3-0.4-0.5c-0.4-0.3-0.7-0.7-1.1-1
					c-1.5-1.3-3.1-2.3-4.9-3.1c-1.8-0.7-3.7-1.2-5.6-1.3c-0.5,0-1-0.1-1.4,0c-0.2,0-0.5,0-0.7,0c-0.2,0-0.5,0-0.7,0.1
					c-0.9,0.1-1.9,0.3-2.8,0.6c-1.8,0.6-3.5,1.5-5,2.7c-1.5,1.2-2.8,2.7-3.9,4.3l-0.2,0.3l-0.1,0.2c-0.1,0.2-0.2,0.3-0.3,0.4
					l-0.3,0.4l-0.3,0.4c-0.3,0.6-0.6,1.2-0.9,1.7c-0.6,1.1-1.1,2.2-1.5,3.3c-0.9,2.2-1.6,4.2-2.2,6.3c-1.3,4.1-2.2,8.1-3.1,12
					c-0.9,3.9-1.7,7.8-2.5,11.5l-0.5,2.3l-0.2-1.6c-0.4-3.7-0.8-7.5-1.1-11.4c-0.3-3.9-0.6-7.8-1-11.8c-0.4-4-0.8-8-1.4-12.1
					c-0.3-2.1-0.7-4.2-1.1-6.3c-0.5-2.2-1-4.4-1.9-6.7c-0.1-0.3-0.2-0.6-0.3-0.9l-0.2-0.6l-0.1-0.3l-0.1-0.3
					c-0.1-0.2-0.2-0.4-0.3-0.7c-0.1-0.2-0.2-0.4-0.3-0.7c-0.2-0.4-0.4-0.9-0.7-1.3c-0.5-0.8-1-1.6-1.6-2.4c-0.6-0.8-1.2-1.5-1.9-2.1
					c-1.3-1.3-2.9-2.3-4.6-3c-0.8-0.3-1.7-0.6-2.6-0.8c-0.9-0.2-1.8-0.3-2.7-0.3c-1.8,0-3.7,0.3-5.4,0.9c-1.7,0.6-3.4,1.5-4.9,2.7
					c-1.5,1.2-2.8,2.6-4,4.2c-0.3,0.4-0.6,0.8-0.8,1.2c-0.1,0.1-0.1,0.2-0.2,0.3l-0.2,0.3c-0.1,0.2-0.2,0.3-0.3,0.4
					c-0.4,0.6-0.7,1.2-1,1.7c-1.2,2.3-2,4.5-2.7,6.6c-0.7,2.1-1.3,4.2-1.8,6.3c-1,4.1-1.8,8.1-2.5,12l-0.9,5.1l-0.7-3
					c-0.5-1.9-0.9-3.8-1.5-5.6s-1.1-3.6-1.8-5.1c-0.7-1.6-1.5-2.9-2.3-4c-0.9-1.1-1.8-1.9-2.7-2.6c-0.5-0.3-1-0.7-1.5-0.9
					c-0.5-0.3-1.1-0.5-1.7-0.7c-0.2,0-0.3-0.1-0.5-0.1c-0.2,0-0.3-0.1-0.5-0.1c-0.3-0.1-0.7-0.1-1-0.2l-0.5,0l-0.3,0
					c0,0-0.1,0-0.1,0h-0.1c-0.4,0-0.7,0-1.1,0c-0.7,0-1.4,0.1-2,0.3c-0.6,0.2-1.2,0.3-1.7,0.5c-0.5,0.2-1,0.5-1.5,0.8
					c-0.2,0.1-0.5,0.3-0.7,0.5c-0.2,0.2-0.5,0.3-0.7,0.6c-0.5,0.4-1,0.8-1.5,1.3l-0.4,0.4l-0.2,0.2l-0.2,0.2L154,67
					c-0.1,0.2-0.2,0.3-0.3,0.5c-0.9,1.3-1.8,2.9-2.6,4.6c-0.8,1.7-1.5,3.6-2.3,5.4c-0.4,0.9-0.7,1.8-1.1,2.7l-0.1,0.3l-0.2,0.3
					l-0.1,0.3l-0.3,0.6c-0.7,1.5-1.4,2.7-2.2,3.7s-1.4,1.7-2.1,2.1c-0.3,0.2-0.6,0.4-0.9,0.5c-0.3,0.1-0.6,0.2-1,0.3
					c-0.2,0-0.4,0.1-0.6,0.1c-0.1,0-0.2,0-0.3,0l-0.1,0h0c0,0,0,0-0.1,0h-26.8V90h26.8c0,0,0.1,0,0.1,0h0.1l0.1,0c0.1,0,0.3,0,0.4,0
					c0.3,0,0.5,0,0.8-0.1c1-0.2,1.8-0.5,2.6-1c0.8-0.5,1.6-1.4,2.4-2.5c0.8-1.1,1.6-2.5,2.3-4l0.3-0.6l0.1-0.3l0.1-0.3l0.1-0.3
					c0.4-0.8,0.7-1.6,1-2.5c0.7-1.7,1.3-3.3,2-4.9c0.7-1.6,1.5-3.1,2.3-4.3c0.1-0.2,0.2-0.3,0.3-0.5l0.3-0.4l0.2-0.2l0.2-0.2
					l0.3-0.4c0.4-0.5,0.9-1,1.3-1.3c0.2-0.2,0.4-0.4,0.7-0.6c0.2-0.2,0.4-0.3,0.7-0.5c0.5-0.3,0.9-0.6,1.4-0.8
					c0.5-0.2,1-0.5,1.6-0.6c0.6-0.2,1.2-0.3,1.8-0.4c0.2,0,0.3,0,0.5,0c0.2,0,0.3,0,0.5,0c0.3,0,0.7,0,1,0.1c0.3,0,0.7,0.1,1,0.2
					c0.2,0,0.3,0.1,0.5,0.1c0.2,0,0.3,0.1,0.4,0.2c0.6,0.2,1.1,0.5,1.6,0.8c0.5,0.3,0.9,0.6,1.4,1c0.9,0.7,1.7,1.6,2.4,2.7
					c0.8,1.1,1.5,2.3,2.1,3.8c0.6,1.4,1.2,3,1.6,4.7c0.5,1.7,0.9,3.4,1.3,5.1l0.7,3l0.1,0.5c0.1,0.3,0.2,0.7,0.3,1s0.3,0.7,0.5,0.9
					c0.1,0.1,0.3,0.3,0.4,0.3c0.2,0.1,0.4,0.1,0.5,0c0.2-0.1,0.3-0.2,0.4-0.4s0.2-0.3,0.2-0.5c0.1-0.3,0.2-0.7,0.3-1
					c0.1-0.3,0.2-0.7,0.2-1l1-5.2c0.7-3.9,1.5-7.8,2.5-11.9c0.5-2,1.1-4.1,1.8-6.2c0.7-2.1,1.5-4.2,2.6-6.4c0.3-0.6,0.6-1.1,0.9-1.7
					c0.1-0.1,0.2-0.3,0.3-0.4l0.2-0.2c0.1-0.1,0.1-0.2,0.2-0.3c0.2-0.4,0.5-0.7,0.8-1.1c1-1.4,2.3-2.7,3.6-3.8
					c1.4-1.1,2.9-1.9,4.4-2.5s3.3-0.8,4.9-0.8c0.8,0,1.7,0.1,2.5,0.2c0.8,0.2,1.6,0.4,2.4,0.7c1.5,0.7,2.9,1.6,4.1,2.8
					c0.6,0.6,1.2,1.2,1.7,1.9c0.5,0.7,1,1.4,1.4,2.2c0.2,0.4,0.4,0.8,0.6,1.2l0.3,0.6l0.3,0.6c0.1,0.2,0.2,0.4,0.3,0.6l0.2,0.5
					c0.1,0.3,0.2,0.6,0.3,0.9c0.8,2.3,1.3,4.4,1.8,6.5c0.4,2.1,0.8,4.2,1.1,6.2c0.6,4.1,1,8.1,1.3,12.1c0.3,4,0.6,7.9,1,11.8
					c0.3,3.9,0.6,7.7,1.1,11.4l0.2,1.4l0.1,0.4c0,0.2,0.1,0.4,0.1,0.5c0.1,0.4,0.1,0.7,0.2,1s0.2,0.7,0.4,1c0.1,0.2,0.2,0.3,0.3,0.4
					c0.1,0.1,0.3,0.2,0.5,0.2c0.1,0,0.2,0,0.3,0c0.1,0,0.2-0.1,0.2-0.2c0.1-0.1,0.2-0.3,0.3-0.4c0.2-0.3,0.3-0.7,0.4-1
					c0.1-0.3,0.2-0.7,0.3-1l0.1-0.5l0.5-2.4c0.8-3.8,1.6-7.6,2.5-11.5c0.9-3.9,1.8-7.8,3.1-11.9c0.6-2,1.3-4.1,2.2-6.1
					c0.4-1,0.9-2.1,1.5-3.2c0.3-0.5,0.6-1.1,0.9-1.6l0.2-0.4l0.3-0.4c0.1-0.1,0.2-0.3,0.3-0.4l0.1-0.2l0.2-0.3
					c1-1.5,2.2-2.8,3.5-3.9c1.3-1.1,2.9-2,4.5-2.5c0.8-0.3,1.7-0.4,2.5-0.5c0.2,0,0.4,0,0.7,0l0.7,0c0.4,0,0.9,0,1.3,0.1
					c1.7,0.1,3.5,0.5,5.1,1.2c1.6,0.7,3.1,1.6,4.5,2.8c0.3,0.3,0.7,0.6,1,0.9c0.2,0.2,0.3,0.3,0.4,0.4c0.1,0.1,0.3,0.3,0.4,0.4
					c0.2,0.3,0.5,0.6,0.7,0.8c0.1,0.1,0.2,0.3,0.3,0.4l0.3,0.4c0.8,1.1,1.5,2.2,2,3.3c0.6,1.1,1,2.1,1.5,3.2c0.9,2,1.6,4,2.2,5.8
					c0.3,0.9,0.7,1.8,1,2.6s0.7,1.6,1,2.2c0.3,0.7,0.7,1.3,1,1.7l0.2,0.2l0.1,0.1l0.1,0.1l0.1,0.1l0,0.1c0,0,0,0,0,0.1
					c0,0,0.1,0.1,0.1,0.1c0,0,0.1,0.1,0.1,0.1l0,0l0,0c0,0,0,0,0.1,0.1c0,0,0,0,0.1,0c0,0,0,0,0,0c0,0,0,0,0,0c0,0,0.1,0,0.1,0
					c0,0,0,0,0,0s0,0,0,0c0,0,0,0,0,0c0,0,0,0,0,0c0,0,0.1,0,0.1,0c0,0,0,0,0.1,0c0,0,0,0,0,0h23.5v-1.6H275.9z M275.3,88
					C275.3,88,275.3,88,275.3,88L275.3,88C275.3,88,275.3,88,275.3,88z M275.6,89.8h23.5v1.6h-23.5l-0.1,0l-0.1,0
					c-0.1,0-0.1,0-0.2,0c-0.1,0-0.3,0-0.4,0c-0.2,0-0.5-0.1-0.7-0.2c-0.2-0.1-0.4-0.2-0.6-0.3c-0.2-0.1-0.4-0.3-0.6-0.5l-0.1-0.1
					l-0.1-0.1l-0.2-0.2c-0.1-0.1-0.2-0.2-0.3-0.4l-0.2-0.2l-0.2-0.2c-0.1-0.1-0.2-0.3-0.3-0.4c-0.4-0.6-0.8-1.3-1.2-2.1
					c-0.8-1.5-1.4-3.3-2.1-5.1c-0.7-1.8-1.4-3.7-2.2-5.6c-0.4-1-0.9-1.9-1.4-2.9s-1.1-2-1.8-3l-0.3-0.4c-0.1-0.1-0.2-0.2-0.3-0.4
					c-0.2-0.2-0.4-0.5-0.6-0.7c-0.1-0.1-0.2-0.2-0.3-0.3c-0.1-0.1-0.2-0.2-0.3-0.4c-0.3-0.2-0.5-0.5-0.8-0.7
					c-1.1-0.9-2.3-1.7-3.6-2.3c-1.3-0.6-2.7-0.9-4.1-1c-0.3,0-0.7-0.1-1,0l-0.5,0c-0.2,0-0.3,0-0.5,0c-0.7,0.1-1.4,0.2-2.1,0.4
					c-1.3,0.4-2.6,1.2-3.6,2.1c-1.1,0.9-2,2-2.8,3.2l-0.1,0.2l-0.1,0.2c-0.1,0.1-0.2,0.2-0.2,0.4c-0.2,0.2-0.3,0.5-0.5,0.7
					c-0.3,0.5-0.6,1-0.8,1.5c-0.5,1-0.9,2-1.3,2.9c-0.8,2-1.5,3.9-2.1,5.9c-1.2,3.9-2.1,7.8-3,11.6c-0.9,3.9-1.7,7.7-2.5,11.5
					l-0.6,2.6c-0.1,0.5-0.2,1-0.4,1.6c-0.3,1-0.5,2.1-0.8,3.1c-0.3,1-0.7,2-1.1,3c-0.2,0.5-0.5,0.9-0.9,1.3
					c-0.2,0.2-0.4,0.4-0.6,0.5c-0.2,0.1-0.5,0.1-0.8,0.1c-0.5,0-1-0.3-1.4-0.6c-0.4-0.4-0.7-0.8-1-1.3c-0.5-0.9-0.8-2-1.1-3
					c-0.3-1-0.5-2.1-0.7-3.1c-0.1-0.5-0.2-1.1-0.2-1.6l-0.1-0.9l-0.2-1.4c-0.4-3.8-0.8-7.7-1.1-11.5c-0.3-3.9-0.6-7.8-1-11.7
					c-0.3-3.9-0.7-7.9-1.3-11.9c-0.3-2-0.6-4-1.1-6c-0.4-2-1-4.1-1.7-6.2c-0.1-0.3-0.2-0.5-0.3-0.8l-0.2-0.4
					c-0.1-0.2-0.1-0.3-0.2-0.5c-0.3-0.7-0.6-1.3-0.9-1.9c-0.3-0.6-0.7-1.2-1.1-1.8c-0.4-0.6-0.8-1.1-1.3-1.6c-0.9-1-2.1-1.8-3.3-2.4
					c-0.6-0.3-1.3-0.5-1.9-0.6c-0.7-0.1-1.3-0.2-2-0.2c-1.4,0-2.7,0.3-4,0.8c-1.3,0.5-2.5,1.2-3.6,2.1c-1.1,0.9-2,2-2.9,3.1
					c-0.2,0.3-0.4,0.6-0.6,0.9l-0.1,0.2l-0.1,0.2c-0.1,0.1-0.2,0.2-0.2,0.4c-0.3,0.5-0.6,1-0.8,1.5c-1,2-1.8,4-2.5,6
					c-0.7,2-1.2,4-1.7,5.9c-1,3.9-1.7,7.9-2.4,11.7l-1,5.5c-0.2,1.1-0.4,2.1-0.6,3.1c-0.2,1-0.5,2.1-0.9,3.1c-0.2,0.5-0.4,1-0.7,1.5
					c-0.3,0.5-0.6,0.9-1.1,1.2c-0.2,0.1-0.5,0.2-0.8,0.2c-0.3,0-0.5-0.1-0.8-0.1c-0.2-0.1-0.5-0.2-0.7-0.4c-0.2-0.2-0.4-0.3-0.6-0.6
					c-0.3-0.4-0.6-0.9-0.9-1.3c-0.2-0.5-0.4-1-0.6-1.5c-0.4-1-0.7-2-0.9-3.1c-0.1-0.5-0.3-1-0.4-1.6l-0.7-2.9
					c-0.3-1.4-0.7-2.8-1-4.1c-0.4-1.3-0.8-2.7-1.2-3.9c-0.5-1.2-1-2.3-1.5-3.3c-0.6-1-1.2-1.9-1.8-2.7c-0.3-0.4-0.7-0.8-1.1-1.1
					c-0.4-0.3-0.8-0.7-1.3-0.9c-0.5-0.3-1-0.5-1.6-0.6c-0.3,0-0.6-0.1-0.9-0.1c-0.1,0-0.3,0-0.4,0c-0.1,0-0.3,0-0.4,0.1
					c-0.6,0.1-1.1,0.3-1.6,0.5c-0.5,0.2-0.9,0.5-1.3,0.8c-0.4,0.3-0.8,0.6-1.2,1c-0.2,0.2-0.4,0.4-0.5,0.6c-0.2,0.2-0.3,0.4-0.5,0.6
					c-0.3,0.4-0.7,0.9-1,1.3c-0.2,0.2-0.3,0.5-0.5,0.7l-0.2,0.4l-0.2,0.4c-0.6,1.1-1.2,2.3-1.8,3.6c-0.6,1.3-1.1,2.6-1.6,3.9
					c-0.3,0.7-0.5,1.3-0.8,2c-0.1,0.2-0.1,0.3-0.2,0.5l-0.1,0.3l-0.3,0.6c-0.8,1.6-1.6,3.1-2.6,4.5c-1,1.3-2,2.4-3.2,3.2
					c-1.2,0.8-2.4,1.3-3.8,1.5c-0.3,0.1-0.7,0.1-1.1,0.1c-0.2,0-0.4,0-0.6,0l-0.3,0h-26.8v-1.6h26.8c0,0,0.1,0,0.1,0h0.1l0.1,0
					c0.2,0,0.3,0,0.5,0c0.3,0,0.6-0.1,0.9-0.1c1.2-0.2,2.2-0.6,3.2-1.3c1-0.7,1.9-1.6,2.8-2.8c0.9-1.2,1.7-2.7,2.4-4.2l0.3-0.6
					l0.1-0.3c0.1-0.2,0.2-0.4,0.2-0.6c0.3-0.7,0.6-1.5,0.9-2.2c0.6-1.5,1.2-3,1.8-4.4c0.6-1.4,1.3-2.8,2-3.9
					c0.1-0.1,0.2-0.3,0.3-0.4l0.3-0.4L156,70l0.1-0.2l0.3-0.4c0.4-0.5,0.8-0.9,1.2-1.3c0.2-0.2,0.4-0.4,0.6-0.6
					c0.2-0.2,0.4-0.4,0.6-0.5c0.4-0.3,0.8-0.7,1.3-0.9c0.4-0.3,0.9-0.5,1.4-0.7c0.5-0.2,1.1-0.4,1.7-0.4c0.2,0,0.3,0,0.5,0
					c0.2,0,0.3,0,0.5,0c0.3,0,0.6,0,0.9,0.1c0.3,0,0.6,0.1,0.9,0.2c0.1,0,0.3,0.1,0.4,0.1c0.1,0,0.3,0.1,0.4,0.2
					c0.5,0.2,1,0.5,1.4,0.8c0.4,0.3,0.8,0.7,1.2,1c0.8,0.8,1.5,1.6,2.1,2.7c0.7,1,1.3,2.2,1.8,3.6c0.5,1.3,1,2.8,1.4,4.3
					s0.8,3.1,1.2,4.6l0.7,3c0.1,0.3,0.2,0.7,0.3,1c0.2,0.7,0.4,1.4,0.6,2c0.3,0.7,0.5,1.3,1,1.9c0.1,0.1,0.2,0.3,0.4,0.4
					c0.1,0.1,0.3,0.2,0.5,0.3c0.3,0.1,0.7,0.2,1,0c0.3-0.2,0.5-0.5,0.7-0.8c0.2-0.3,0.3-0.6,0.4-1c0.2-0.7,0.4-1.4,0.6-2.1
					c0.2-0.7,0.3-1.4,0.4-2.1l1-5.3c0.7-3.9,1.5-7.8,2.4-11.8c0.5-2,1-4,1.7-6.1c0.7-2,1.5-4.1,2.5-6.2c0.3-0.5,0.6-1.1,0.9-1.6
					c0.1-0.1,0.2-0.3,0.2-0.4l0.1-0.2l0.2-0.3c0.2-0.3,0.4-0.7,0.7-1c0.9-1.3,2-2.5,3.2-3.5c1.2-1,2.6-1.8,4-2.3
					c1.4-0.5,3-0.8,4.5-0.8c0.8,0,1.5,0.1,2.2,0.2c0.7,0.1,1.5,0.4,2.2,0.7c1.4,0.6,2.6,1.5,3.7,2.6c0.5,0.5,1,1.1,1.5,1.8
					c0.5,0.6,0.9,1.3,1.3,2c0.4,0.7,0.7,1.4,1,2.2c0.1,0.2,0.2,0.4,0.2,0.6l0.2,0.5c0.1,0.3,0.2,0.5,0.3,0.8
					c0.8,2.2,1.3,4.3,1.7,6.3c0.4,2.1,0.8,4.1,1.1,6.1c0.6,4,1,8,1.3,12c0.3,3.9,0.6,7.9,1,11.7c0.3,3.9,0.6,7.7,1.1,11.5l0.2,1.4
					l0.1,0.7c0,0.3,0.1,0.7,0.2,1.1c0.1,0.7,0.3,1.4,0.4,2.1c0.2,0.7,0.4,1.4,0.8,2c0.2,0.3,0.4,0.6,0.6,0.8s0.6,0.4,1,0.4
					c0.2,0,0.4,0,0.5-0.1c0.2-0.1,0.3-0.2,0.4-0.3c0.2-0.3,0.4-0.6,0.6-0.9c0.3-0.6,0.5-1.3,0.7-2c0.2-0.7,0.4-1.4,0.6-2.1l0.2-1
					l0.6-2.5c0.8-3.8,1.6-7.6,2.5-11.5c0.9-3.9,1.8-7.8,3.1-11.8c0.6-2,1.3-4,2.1-6c0.4-1,0.9-2,1.4-3.1c0.3-0.5,0.5-1,0.8-1.6
					l0.2-0.4l0.2-0.4c0.1-0.1,0.2-0.3,0.3-0.4l0.1-0.2l0.2-0.2c0.9-1.3,2-2.5,3.2-3.5c1.2-1,2.6-1.8,4.1-2.3
					c0.7-0.2,1.5-0.4,2.3-0.5c0.2,0,0.4,0,0.6,0h0.6c0.4,0,0.8,0,1.2,0c1.6,0.1,3.1,0.5,4.6,1.1c1.5,0.6,2.8,1.5,4,2.5
					c0.3,0.3,0.6,0.5,0.9,0.8c0.1,0.1,0.3,0.3,0.4,0.4c0.1,0.1,0.2,0.3,0.3,0.4c0.2,0.3,0.4,0.5,0.7,0.8c0.1,0.1,0.2,0.3,0.3,0.4
					l0.3,0.4c0.8,1.1,1.4,2.1,1.9,3.1c0.5,1,1,2.1,1.4,3c0.8,2,1.5,3.9,2.2,5.7s1.3,3.5,2,4.9c0.4,0.7,0.7,1.4,1.1,1.9l0.2,0.3
					l0.2,0.3l0.1,0.2c0.1,0.1,0.2,0.2,0.2,0.3l0.1,0.1l0.1,0.1l0.1,0c0.2,0.2,0.3,0.2,0.4,0.3c0.1,0.1,0.2,0.1,0.3,0.2
					c0,0,0.1,0,0.1,0c0,0,0.1,0,0.1,0c0,0,0.1,0,0.1,0c0,0,0.1,0,0.1,0c0.1,0,0.2,0,0.2,0L275.6,89.8z M275.6,93h23.5v1.6h-23.5
					c-0.9,0-1.8-0.2-2.6-0.5c-0.4-0.2-0.8-0.4-1.2-0.6c-0.4-0.2-0.7-0.5-1.1-0.8l-0.1-0.1l-0.1-0.1l-0.2-0.2
					c-0.2-0.2-0.3-0.3-0.5-0.5c-0.3-0.3-0.6-0.7-0.8-1.1c-0.5-0.8-1-1.6-1.4-2.5c-0.8-1.7-1.5-3.5-2.2-5.4c-0.7-1.8-1.4-3.7-2.1-5.5
					c-0.4-0.9-0.8-1.8-1.3-2.7c-0.5-0.9-1-1.8-1.6-2.6l-0.2-0.3l-0.2-0.3c-0.2-0.2-0.3-0.4-0.5-0.6c-0.2-0.2-0.3-0.4-0.5-0.6
					c-0.2-0.2-0.4-0.4-0.6-0.5c-0.8-0.7-1.7-1.3-2.7-1.7c-1-0.4-2-0.7-3.1-0.8c-0.3,0-0.5-0.1-0.8-0.1c-0.3,0-0.5,0-0.8,0
					c-0.5,0-1.1,0.1-1.6,0.3c-1,0.3-1.9,0.9-2.7,1.6c-0.8,0.7-1.5,1.5-2.1,2.4c-1.2,1.7-2,3.5-2.8,5.3c-0.8,1.8-1.4,3.7-2,5.6
					c-1.2,3.8-2.1,7.6-3,11.4c-0.9,3.8-1.7,7.7-2.5,11.5l-0.6,2.8c-0.2,0.9-0.4,1.7-0.6,2.6c-0.4,1.7-0.9,3.5-1.4,5.2
					c-0.5,1.7-1.1,3.4-1.9,5c-0.4,0.8-0.9,1.6-1.5,2.2c-0.3,0.3-0.7,0.6-1.1,0.8c-0.2,0.1-0.4,0.2-0.6,0.2c-0.2,0-0.4,0-0.7,0
					c-0.4,0-0.9-0.2-1.3-0.3c-0.4-0.2-0.8-0.4-1.1-0.7c-0.7-0.6-1.2-1.3-1.6-2.1c-0.4-0.8-0.8-1.6-1.1-2.4c-0.3-0.8-0.6-1.7-0.8-2.5
					c-0.5-1.7-0.8-3.5-1.1-5.2c-0.1-0.9-0.3-1.8-0.4-2.6l-0.2-1.3l-0.2-1.4c-0.4-3.9-0.8-7.8-1.1-11.7c-0.3-3.9-0.6-7.8-0.9-11.7
					c-0.3-3.9-0.7-7.8-1.3-11.7c-0.3-1.9-0.6-3.9-1-5.8c-0.4-1.9-0.9-3.9-1.6-5.8c-0.1-0.2-0.2-0.5-0.3-0.7
					c-0.1-0.2-0.2-0.5-0.3-0.7c-0.2-0.5-0.4-1-0.7-1.4c-0.2-0.5-0.5-0.9-0.8-1.4c-0.3-0.4-0.6-0.9-0.9-1.3c-0.7-0.8-1.5-1.5-2.5-2
					c-0.5-0.2-1-0.4-1.5-0.5c-0.5-0.1-1-0.1-1.6-0.1c-1.1,0-2.1,0.3-3.1,0.7c-1,0.4-1.9,1-2.7,1.7c-1.6,1.4-2.8,3.3-3.7,5
					c-0.9,1.8-1.6,3.7-2.3,5.5c-0.6,1.9-1.1,3.8-1.6,5.7c-0.9,3.8-1.7,7.7-2.4,11.5l-1.1,5.7c-0.3,1.7-0.7,3.5-1.1,5.2
					c-0.4,1.7-0.8,3.5-1.5,5.1c-0.3,0.8-0.7,1.7-1.1,2.4c-0.2,0.4-0.5,0.8-0.8,1.1c-0.3,0.3-0.6,0.6-1,0.9c-0.2,0.1-0.4,0.2-0.6,0.2
					c-0.2,0.1-0.4,0.1-0.7,0.1c-0.4,0-0.9-0.1-1.3-0.2c-0.1,0-0.2-0.1-0.3-0.1l-0.3-0.2c-0.2-0.1-0.4-0.2-0.6-0.4
					c-0.4-0.3-0.7-0.6-1-0.9c-0.2-0.2-0.3-0.3-0.4-0.5c-0.1-0.2-0.3-0.4-0.4-0.6l-0.2-0.3l-0.2-0.3c-0.1-0.2-0.2-0.4-0.3-0.6
					c-0.4-0.8-0.8-1.6-1.1-2.4c-0.6-1.7-1.1-3.4-1.6-5.1c-0.2-0.9-0.4-1.7-0.7-2.6l-0.7-2.9c-0.5-2.1-1-4.2-1.6-6.2
					c-0.3-1-0.6-2-1-2.9c-0.4-0.9-0.8-1.8-1.3-2.7c-0.5-0.9-1-1.7-1.8-2.3c-0.4-0.3-0.8-0.6-1.3-0.7c-0.5-0.1-1-0.1-1.5,0
					c-0.5,0.1-0.9,0.4-1.3,0.7c-0.4,0.3-0.8,0.6-1.1,1c-0.3,0.4-0.6,0.8-0.9,1.2c-0.3,0.4-0.5,0.8-0.8,1.3c-1,1.7-1.8,3.6-2.6,5.6
					c-0.4,1-0.8,2-1.2,3c-0.2,0.5-0.4,1-0.6,1.5l-0.2,0.4l-0.2,0.3l-0.3,0.7c-0.8,1.7-1.8,3.4-2.9,4.9c-1.1,1.5-2.4,2.9-3.9,4
					c-1.5,1.1-3.3,1.8-5.1,2c-0.5,0.1-0.9,0.1-1.4,0.2c-0.2,0-0.5,0-0.7,0l-0.3,0h-26.8v-1.6h26.8l0.3,0c0.2,0,0.4,0,0.6,0
					c0.4,0,0.8-0.1,1.2-0.1c1.6-0.3,3.1-0.9,4.5-1.8c1.3-0.9,2.5-2.2,3.6-3.6c1-1.4,1.9-3,2.7-4.7l0.3-0.6l0.1-0.3
					c0.1-0.1,0.1-0.3,0.2-0.4c0.2-0.6,0.5-1.1,0.7-1.7c0.5-1.2,0.9-2.3,1.4-3.5c0.5-1.1,1-2.2,1.5-3.2c0.5-1,1.1-1.9,1.7-2.8
					c0.3-0.4,0.6-0.8,0.9-1.2c0.3-0.4,0.6-0.8,1-1.1c0.4-0.3,0.8-0.7,1.2-0.9c0.4-0.3,0.9-0.5,1.5-0.6c0.1,0,0.1,0,0.2,0l0.2,0
					c0.1,0,0.3,0,0.4,0c0.3,0,0.6,0,0.8,0.1c0.5,0.1,1,0.3,1.5,0.6c0.4,0.3,0.8,0.6,1.2,1c0.3,0.4,0.7,0.8,0.9,1.2
					c0.6,0.8,1.1,1.7,1.5,2.7c0.5,1,0.9,2,1.3,3.1c0.8,2.2,1.4,4.7,1.9,7.1l0.7,2.9c0.2,0.7,0.3,1.4,0.5,2.1
					c0.4,1.4,0.8,2.7,1.3,4.1c0.2,0.7,0.5,1.3,0.8,2s0.7,1.2,1.2,1.8c0.2,0.3,0.5,0.5,0.8,0.7c0.1,0.1,0.3,0.2,0.4,0.3l0.2,0.1
					c0.1,0,0.2,0.1,0.2,0.1c0.3,0.1,0.7,0.2,1,0.2c0.2,0,0.4,0,0.5-0.1c0.2,0,0.3-0.1,0.5-0.2c0.6-0.3,1.1-0.9,1.4-1.6
					c0.4-0.6,0.6-1.3,0.9-1.9c0.5-1.3,0.8-2.7,1.2-4.1c0.3-1.4,0.6-2.8,0.9-4.2l1-5.6c0.7-3.9,1.4-7.7,2.4-11.6
					c0.5-1.9,1-3.9,1.7-5.8s1.4-3.9,2.4-5.8c0.2-0.5,0.5-0.9,0.8-1.4c0.3-0.4,0.6-1,1-1.5c0.7-1,1.5-1.9,2.5-2.7
					c0.9-0.8,2-1.5,3.1-1.9c1.1-0.5,2.3-0.7,3.5-0.7c0.6,0,1.2,0,1.8,0.1c0.6,0.1,1.2,0.3,1.7,0.6c1.1,0.5,2.1,1.3,2.9,2.2
					c0.4,0.4,0.8,0.9,1.1,1.4c0.3,0.5,0.7,1,1,1.6c0.3,0.5,0.6,1.1,0.8,1.7c0.1,0.1,0.1,0.3,0.2,0.4l0.2,0.4
					c0.1,0.2,0.2,0.5,0.3,0.7c0.7,2,1.2,4,1.6,6c0.4,2,0.8,4,1,5.9c0.6,3.9,1,7.9,1.3,11.8c0.3,3.9,0.6,7.8,0.9,11.7
					s0.6,7.8,1.1,11.6l0.2,1.4l0.1,1.1c0.1,0.7,0.2,1.4,0.3,2.1c0.2,1.4,0.5,2.8,0.9,4.2c0.2,0.7,0.4,1.4,0.6,2s0.5,1.3,0.9,1.9
					c0.3,0.6,0.8,1.2,1.3,1.7s1.2,0.8,1.9,0.9c0.2,0,0.4,0,0.5,0c0.2,0,0.4-0.1,0.5-0.1c0.3-0.1,0.6-0.4,0.9-0.6
					c0.5-0.5,0.8-1.1,1.2-1.8c0.6-1.3,1.1-2.6,1.5-4c0.4-1.4,0.8-2.7,1.1-4.1c0.2-0.7,0.3-1.4,0.5-2.1l0.6-2.7
					c0.8-3.8,1.6-7.6,2.5-11.5c0.9-3.8,1.8-7.7,3-11.5c0.6-1.9,1.2-3.8,2-5.7c0.4-1,0.8-1.9,1.3-2.8c0.2-0.5,0.5-0.9,0.8-1.4
					c0.1-0.2,0.3-0.5,0.4-0.7c0.1-0.1,0.1-0.2,0.2-0.3l0.1-0.2l0.1-0.2c0.7-1,1.5-2,2.4-2.8c0.9-0.8,2-1.5,3.2-1.9
					c0.6-0.2,1.2-0.3,1.8-0.4c0.2,0,0.3,0,0.5,0l0.5,0c0.3,0,0.6,0,0.9,0.1c1.2,0.1,2.4,0.4,3.6,0.9c1.1,0.5,2.2,1.2,3.1,2
					c0.2,0.2,0.5,0.4,0.7,0.6c0.2,0.2,0.4,0.4,0.6,0.6c0.2,0.2,0.4,0.4,0.5,0.7c0.1,0.1,0.2,0.2,0.3,0.3l0.2,0.3
					c0.7,0.9,1.2,1.8,1.7,2.8c0.5,0.9,0.9,1.9,1.3,2.8c0.8,1.9,1.5,3.8,2.2,5.6c0.7,1.8,1.4,3.6,2.2,5.2c0.4,0.8,0.8,1.6,1.3,2.3
					c0.1,0.2,0.2,0.3,0.4,0.5l0.2,0.2l0.2,0.2c0.1,0.2,0.3,0.3,0.4,0.4l0.2,0.2l0.1,0.1l0.1,0.1c0.3,0.3,0.6,0.5,0.8,0.7
					c0.3,0.2,0.6,0.3,0.9,0.5c0.3,0.1,0.6,0.2,1,0.3c0.2,0,0.3,0,0.5,0.1c0.1,0,0.2,0,0.3,0l0.1,0H275.6z M275.6,96.1h23.5v1.6
					h-23.5c-1.2,0-2.5-0.2-3.7-0.7c-0.6-0.2-1.2-0.5-1.7-0.9c-0.5-0.3-1-0.7-1.5-1.1l-0.2-0.2l-0.5-0.5c-0.2-0.2-0.4-0.4-0.6-0.7
					l-0.3-0.3l-0.3-0.3c-0.2-0.2-0.3-0.5-0.5-0.7c-0.6-0.9-1.1-1.9-1.6-2.8c-0.9-1.9-1.6-3.8-2.3-5.6c-0.7-1.8-1.3-3.7-2.1-5.4
					c-0.4-0.9-0.8-1.7-1.2-2.5c-0.4-0.8-0.9-1.6-1.4-2.2l-0.2-0.3l-0.2-0.2c-0.1-0.2-0.3-0.3-0.4-0.5c-0.1-0.2-0.3-0.3-0.4-0.4
					l-0.2-0.2c-0.1-0.1-0.1-0.1-0.2-0.2c-0.5-0.5-1.1-0.9-1.8-1.2c-0.7-0.3-1.3-0.5-2.1-0.5c-0.2,0-0.4,0-0.5,0c-0.2,0-0.4,0-0.5,0
					c-0.4,0-0.7,0.1-1,0.2c-0.7,0.2-1.3,0.6-1.8,1.1c-0.5,0.5-1,1-1.4,1.6l-0.1,0.1l-0.1,0.1c-0.1,0.1-0.1,0.2-0.2,0.3
					c-0.1,0.2-0.2,0.4-0.3,0.6c-0.2,0.4-0.4,0.8-0.6,1.2c-0.4,0.8-0.8,1.6-1.1,2.5c-0.7,1.7-1.3,3.5-1.9,5.3
					c-1.1,3.6-2,7.4-2.9,11.2c-0.9,3.8-1.7,7.6-2.5,11.4l-0.7,3c-0.3,1.2-0.6,2.4-0.9,3.6c-0.6,2.4-1.3,4.8-2.1,6.9
					c-0.4,1.1-0.8,2.1-1.3,3c-0.5,0.9-1,1.8-1.5,2.6c-0.6,0.8-1.2,1.5-2,2.2c-0.4,0.3-0.8,0.6-1.3,0.7c-0.1,0-0.3,0.1-0.4,0.1
					c-0.1,0-0.3,0-0.4,0.1c-0.3,0-0.5,0-0.8,0c-1.1-0.1-2.1-0.5-3-1.1c-0.8-0.6-1.5-1.3-2.2-2.1c-0.6-0.8-1.1-1.7-1.6-2.6
					c-0.5-0.9-0.9-1.9-1.3-3c-0.8-2.1-1.3-4.4-1.8-6.9c-0.2-1.2-0.4-2.4-0.6-3.7l-0.1-0.9l-0.1-0.9l-0.2-1.5
					c-0.5-3.9-0.8-7.9-1.1-11.8c-0.3-3.9-0.6-7.8-0.9-11.7c-0.3-3.9-0.7-7.7-1.3-11.5c-0.3-1.9-0.6-3.8-1-5.6
					c-0.4-1.8-0.9-3.7-1.5-5.4c-0.1-0.2-0.2-0.4-0.2-0.6l-0.1-0.3c0-0.1-0.1-0.2-0.1-0.2c-0.1-0.3-0.3-0.7-0.4-1
					c-0.3-0.6-0.7-1.2-1.1-1.8s-1-1-1.6-1.3c-0.6-0.3-1.4-0.5-2.1-0.4c-0.7,0-1.4,0.2-2.1,0.5c-0.7,0.3-1.2,0.7-1.8,1.2
					c-0.5,0.5-1,1-1.4,1.6c-0.2,0.3-0.4,0.6-0.6,1c-0.2,0.4-0.4,0.8-0.6,1.2c-0.8,1.6-1.5,3.3-2.1,5.1c-0.6,1.8-1.1,3.6-1.5,5.5
					c-0.9,3.7-1.6,7.5-2.3,11.4l-0.5,2.9l-0.6,3.1c-0.5,2.4-1,4.9-1.6,7.2c-0.3,1.2-0.7,2.3-1.1,3.3c-0.4,1.1-0.8,2-1.3,2.9
					c-0.5,0.9-1,1.8-1.6,2.5c-0.3,0.4-0.7,0.8-1,1.1c-0.4,0.3-0.8,0.6-1.3,0.8c-0.2,0.1-0.5,0.2-0.8,0.2c-0.3,0.1-0.5,0.1-0.8,0.1
					c-0.5,0-1.1-0.1-1.6-0.2c-0.1,0-0.3-0.1-0.4-0.1l-0.4-0.1c-0.2-0.1-0.5-0.2-0.7-0.4c-0.4-0.3-0.9-0.6-1.2-0.9
					c-0.2-0.2-0.4-0.3-0.6-0.5c-0.2-0.2-0.3-0.4-0.5-0.6l-0.2-0.3c-0.1-0.1-0.2-0.2-0.2-0.3c-0.2-0.2-0.3-0.4-0.5-0.6
					c-0.6-0.8-1.1-1.8-1.6-2.8c-1-2-1.8-4.2-2.4-6.6c-0.3-1.2-0.6-2.4-0.9-3.6l-0.7-2.8c-0.3-1.4-0.7-2.8-1-4.1
					c-0.2-0.7-0.4-1.4-0.6-2c-0.2-0.7-0.5-1.3-0.8-2c-0.3-0.6-0.7-1.3-1.2-1.7c-0.3-0.2-0.6-0.4-0.9-0.5c-0.3-0.1-0.7-0.1-1.1,0
					c-0.3,0.1-0.7,0.3-0.9,0.5c-0.3,0.2-0.5,0.5-0.7,0.8s-0.4,0.6-0.6,0.9c-0.2,0.3-0.3,0.6-0.5,0.9c-0.6,1.3-1.1,2.6-1.7,3.9
					c-0.3,0.7-0.5,1.3-0.8,2c-0.1,0.3-0.3,0.7-0.4,1l-0.3,0.6l-0.3,0.7c-0.9,1.8-1.9,3.7-3.2,5.4c-1.3,1.7-2.8,3.4-4.7,4.7
					c-0.9,0.6-2,1.2-3,1.6c-1.1,0.4-2.2,0.7-3.3,0.9c-0.6,0.1-1.1,0.2-1.7,0.2c-0.3,0-0.6,0-0.8,0l-0.4,0h-26.8v-1.6h26.8l0.4,0
					c0.3,0,0.5,0,0.8,0c0.5,0,1-0.1,1.5-0.2c1-0.2,2-0.4,3-0.8c1-0.4,1.9-0.9,2.7-1.5c1.7-1.2,3.1-2.7,4.3-4.3
					c1.2-1.6,2.2-3.4,3-5.2l0.3-0.7l0.3-0.6c0.2-0.4,0.4-0.8,0.5-1.2c0.3-0.8,0.7-1.6,1-2.5c0.7-1.7,1.3-3.3,2.1-4.9
					c0.2-0.4,0.4-0.8,0.6-1.2c0.2-0.4,0.5-0.8,0.7-1.1c0.3-0.3,0.6-0.7,0.9-1c0.3-0.3,0.7-0.5,1.2-0.6c0.4-0.1,0.9-0.1,1.3,0
					c0.4,0.1,0.8,0.3,1.2,0.6c0.7,0.6,1.1,1.4,1.5,2.2c0.4,0.8,0.7,1.6,1,2.5c0.3,0.8,0.5,1.7,0.8,2.6c0.5,1.7,0.9,3.4,1.3,5.2
					l0.7,2.8c0.2,1,0.5,2.1,0.8,3.1c0.6,2,1.2,4.1,2,5.9c0.4,0.9,0.8,1.9,1.3,2.7c0.1,0.2,0.2,0.4,0.4,0.6c0.1,0.1,0.1,0.2,0.2,0.3
					l0.2,0.3c0.1,0.2,0.3,0.4,0.4,0.6c0.2,0.2,0.3,0.4,0.5,0.6c0.3,0.4,0.7,0.7,1.1,1c0.2,0.1,0.4,0.3,0.6,0.4l0.3,0.2
					c0.1,0.1,0.2,0.1,0.4,0.1c0.5,0.2,1,0.2,1.5,0.2c0.2,0,0.5,0,0.8-0.1c0.2-0.1,0.5-0.2,0.7-0.3c0.4-0.2,0.8-0.6,1.2-0.9
					c0.3-0.4,0.6-0.8,0.9-1.2c0.5-0.8,1-1.7,1.3-2.6c0.8-1.8,1.3-3.8,1.8-5.9c0.5-2,0.9-4.1,1.3-6.2l0.5-2.9l0.5-2.9
					c0.7-3.8,1.4-7.7,2.4-11.4c0.5-1.9,1-3.8,1.6-5.6c0.6-1.8,1.3-3.6,2.2-5.3c0.4-0.8,0.9-1.7,1.4-2.4c0.5-0.7,1.1-1.4,1.7-2
					c0.7-0.6,1.4-1.1,2.2-1.5c0.8-0.4,1.7-0.6,2.6-0.6c0.9-0.1,1.8,0.1,2.6,0.5c0.8,0.4,1.5,1,2,1.7c0.3,0.3,0.5,0.7,0.8,1.1
					c0.2,0.4,0.5,0.8,0.7,1.2c0.2,0.4,0.4,0.8,0.6,1.2c0.1,0.2,0.2,0.4,0.3,0.6c0.1,0.2,0.2,0.4,0.2,0.7c0.6,1.8,1.1,3.7,1.5,5.6
					c0.4,1.9,0.7,3.8,1,5.7c0.6,3.8,0.9,7.7,1.3,11.6c0.3,3.9,0.6,7.8,0.9,11.7c0.3,3.9,0.6,7.8,1.1,11.7l0.2,1.5l0.1,0.8l0.1,0.8
					c0.1,1.1,0.3,2.1,0.5,3.2c0.4,2.1,0.8,4.2,1.4,6.1c0.3,1,0.6,1.9,1,2.9c0.4,0.9,0.8,1.8,1.3,2.7c0.5,0.8,1.1,1.6,1.9,2.2
					c0.4,0.3,0.8,0.6,1.3,0.8c0.5,0.2,1,0.3,1.5,0.4c0.5,0,1,0,1.5-0.2c0.5-0.2,0.9-0.5,1.2-0.8c0.7-0.7,1.2-1.5,1.7-2.3
					c0.9-1.7,1.7-3.6,2.3-5.5c0.6-2,1.2-4,1.7-6.1c0.3-1,0.5-2.1,0.7-3.1l0.7-2.9c0.8-3.8,1.6-7.7,2.5-11.5
					c0.9-3.8,1.8-7.6,2.9-11.3c0.6-1.9,1.2-3.7,1.9-5.5c0.4-0.9,0.8-1.8,1.2-2.6c0.4-0.8,0.9-1.7,1.4-2.4c0.5-0.7,1.1-1.4,1.7-2
					c0.7-0.6,1.4-1.1,2.3-1.4c0.4-0.1,0.9-0.2,1.3-0.2c0.2,0,0.4,0,0.7,0c0.2,0,0.4,0,0.7,0c0.9,0.1,1.8,0.3,2.6,0.7
					c0.8,0.4,1.6,0.9,2.2,1.5c0.2,0.1,0.3,0.3,0.5,0.5c0.2,0.2,0.3,0.3,0.5,0.5c0.1,0.2,0.3,0.3,0.4,0.5l0.2,0.3l0.2,0.3
					c0.5,0.8,1,1.6,1.5,2.4c0.4,0.8,0.8,1.7,1.2,2.6c0.8,1.8,1.4,3.6,2.1,5.4c0.7,1.8,1.4,3.7,2.3,5.5c0.4,0.9,0.9,1.8,1.5,2.6
					c0.3,0.4,0.6,0.8,0.9,1.2c0.2,0.2,0.3,0.4,0.5,0.6l0.3,0.3l0.1,0.1l0.2,0.1c0.4,0.4,0.8,0.7,1.3,1c0.5,0.3,0.9,0.5,1.4,0.7
					C273.4,95.9,274.5,96.1,275.6,96.1z M275.6,99.2h23.5v1.6h-23.6l-0.1,0l-0.3,0c-0.2,0-0.4,0-0.6,0c-0.4,0-0.8-0.1-1.2-0.2
					c-0.2,0-0.4-0.1-0.6-0.1c-0.2,0-0.4-0.1-0.6-0.2c-0.2-0.1-0.4-0.1-0.6-0.2c-0.2-0.1-0.4-0.1-0.6-0.2c-0.8-0.3-1.6-0.7-2.3-1.1
					c-0.2-0.1-0.3-0.2-0.5-0.3c-0.2-0.1-0.3-0.2-0.5-0.4l-0.5-0.4c-0.1-0.1-0.3-0.3-0.4-0.4l-0.2-0.2l-0.2-0.2l-0.4-0.4
					c-0.2-0.3-0.5-0.5-0.7-0.8l-0.3-0.4l-0.3-0.4l-0.2-0.2l-0.4-0.6c-0.7-1.1-1.3-2.2-1.8-3.2c-0.5-1-0.9-2-1.3-3
					c-0.4-1-0.8-1.9-1.1-2.9c-0.7-1.9-1.3-3.6-2-5.2c-0.3-0.8-0.7-1.6-1.1-2.3c-0.4-0.7-0.7-1.3-1.1-1.9l-0.1-0.2l-0.1-0.2
					c-0.1-0.1-0.2-0.2-0.3-0.3c0-0.1-0.1-0.1-0.1-0.2l-0.1-0.1c0,0-0.1-0.1-0.1-0.1c0,0-0.1-0.1-0.1-0.1c-0.3-0.2-0.6-0.4-0.9-0.6
					c-0.3-0.1-0.7-0.2-1-0.3c-0.2,0-0.4,0-0.5,0c-0.2,0-0.4,0-0.5,0.1c-0.3,0.1-0.6,0.3-0.9,0.6c-0.3,0.2-0.5,0.5-0.7,0.8l-0.1,0.2
					c0,0.1-0.1,0.1-0.1,0.2l-0.1,0.2l-0.1,0.2c-0.2,0.3-0.4,0.7-0.6,1c-0.4,0.7-0.7,1.5-1,2.3c-0.7,1.6-1.2,3.3-1.8,5.1
					c-1.1,3.5-2,7.2-2.8,11c-0.9,3.8-1.7,7.6-2.5,11.4l-0.3,1.4l-0.4,1.8c-0.4,1.6-0.7,3.1-1.1,4.7c-0.8,3.1-1.7,6.1-2.9,8.5
					c-0.3,0.6-0.6,1.2-0.9,1.8c-0.3,0.5-0.6,1.1-1,1.5c-0.7,0.9-1.3,1.8-2.1,2.5c-0.7,0.7-1.5,1.3-2.4,1.8c-0.2,0.1-0.5,0.2-0.7,0.3
					c-0.3,0.1-0.5,0.2-0.8,0.2c-0.1,0-0.3,0.1-0.4,0.1c-0.2,0-0.3,0-0.5,0c-0.2,0-0.3,0-0.5,0c-0.2,0-0.3,0-0.5,0
					c-1.2-0.1-2.4-0.4-3.4-0.9c-1-0.5-1.9-1.2-2.6-1.9c-0.4-0.4-0.8-0.8-1.1-1.2c-0.3-0.4-0.7-0.9-1-1.3c-0.7-0.9-1.2-2-1.8-3.2
					c-1.1-2.4-1.9-5.3-2.5-8.4c-0.3-1.5-0.6-3.1-0.8-4.7c-0.1-0.4-0.1-0.8-0.2-1.2l-0.1-1l-0.2-1.5c-0.5-4-0.8-8-1.1-11.9
					c-0.3-3.9-0.6-7.8-0.9-11.7c-0.3-3.8-0.7-7.7-1.3-11.4c-0.3-1.8-0.6-3.7-1-5.4c-0.4-1.8-0.8-3.5-1.4-5c-0.1-0.2-0.1-0.4-0.2-0.6
					l-0.1-0.3c-0.1-0.2-0.1-0.3-0.2-0.5c-0.2-0.3-0.3-0.6-0.6-0.9c-0.2-0.3-0.5-0.5-0.8-0.7c-0.3-0.2-0.7-0.2-1-0.2
					c-0.4,0-0.7,0.1-1,0.2c-0.3,0.1-0.6,0.3-0.9,0.6c-0.3,0.2-0.5,0.5-0.7,0.8c-0.1,0.1-0.1,0.2-0.1,0.2c0,0,0,0,0,0.1l-0.1,0.1
					c0,0.1-0.1,0.2-0.1,0.2c-0.2,0.3-0.4,0.6-0.5,1c-0.7,1.4-1.3,3-1.9,4.7c-0.6,1.7-1,3.4-1.5,5.2c-0.9,3.6-1.6,7.4-2.3,11.2
					l-0.5,2.9l-0.6,3.3c-0.3,1.6-0.6,3.1-1,4.7c-0.3,1.5-0.7,3.1-1.2,4.5c-0.4,1.4-0.9,2.8-1.5,4c-0.6,1.2-1.2,2.2-1.9,3.2
					c-0.7,0.9-1.4,1.7-2.2,2.4c-0.8,0.7-1.7,1.3-2.8,1.6c-0.3,0.1-0.6,0.2-0.9,0.2c-0.3,0.1-0.6,0.1-0.9,0.1l-0.5,0
					c-0.2,0-0.3,0-0.5,0c-0.2,0-0.3,0-0.5,0l-0.2,0c-0.1,0-0.1,0-0.2,0c-0.1,0-0.3-0.1-0.4-0.1l-0.4-0.1c-0.3-0.1-0.6-0.2-0.8-0.3
					c-0.5-0.2-1-0.5-1.5-0.8c-0.2-0.1-0.5-0.3-0.7-0.5c-0.2-0.2-0.4-0.3-0.6-0.5l-0.3-0.3c-0.1-0.1-0.2-0.2-0.3-0.3
					c-0.2-0.2-0.4-0.4-0.6-0.6c-0.8-0.8-1.5-1.8-2.2-2.9c-0.7-1.1-1.3-2.3-1.9-3.7c-0.6-1.3-1.1-2.8-1.5-4.3s-0.9-3-1.2-4.6
					l-0.7-2.7c-0.2-0.7-0.3-1.4-0.5-2.1c-0.2-0.7-0.4-1.4-0.7-2c-0.2-0.3-0.3-0.6-0.6-0.9c-0.1-0.1-0.3-0.2-0.5-0.2
					c-0.2,0-0.4,0-0.5,0c-0.3,0.1-0.6,0.4-0.8,0.6c-0.2,0.3-0.4,0.6-0.5,0.9c-0.3,0.6-0.6,1.3-0.8,2c-0.1,0.3-0.3,0.7-0.4,1
					l-0.2,0.5l-0.2,0.5l-0.3,0.7c-0.9,2-2,4-3.5,5.9c-0.7,1-1.5,1.9-2.4,2.9c-0.9,0.9-1.9,1.8-3,2.6c-1.1,0.8-2.3,1.4-3.6,2
					c-1.3,0.5-2.6,0.9-4,1.1c-0.7,0.1-1.3,0.2-2,0.2c-0.3,0-0.7,0-1,0l-0.5,0h-26.8v-1.6h26.8l0.4,0c0.3,0,0.6,0,0.9,0
					c0.6,0,1.2-0.1,1.8-0.2c1.2-0.2,2.5-0.5,3.6-1c1.2-0.5,2.3-1.1,3.3-1.8c1-0.7,2-1.5,2.8-2.4c0.8-0.9,1.6-1.8,2.3-2.7
					c1.3-1.8,2.4-3.8,3.3-5.7l0.3-0.7l0.2-0.5c0.1-0.2,0.2-0.5,0.3-0.7c0.2-0.5,0.4-1,0.6-1.5c0.4-1,0.8-2,1.3-2.9
					c0.2-0.5,0.5-0.9,0.8-1.4c0.3-0.4,0.7-0.8,1.2-1c0.3-0.1,0.5-0.1,0.8,0s0.5,0.2,0.7,0.4c0.4,0.4,0.7,0.8,0.9,1.3
					c0.5,1,0.8,2,1.1,3c0.3,1,0.5,2.1,0.8,3.1l0.7,2.8c0.3,1.4,0.7,2.8,1.1,4.1c0.8,2.7,1.7,5.2,2.9,7.3c0.6,1,1.2,2,1.9,2.8
					c0.2,0.2,0.3,0.4,0.5,0.6c0.1,0.1,0.2,0.2,0.3,0.3l0.3,0.3c0.2,0.2,0.4,0.4,0.6,0.5c0.2,0.2,0.4,0.3,0.6,0.5
					c0.4,0.3,0.9,0.6,1.4,0.8c0.2,0.1,0.5,0.2,0.8,0.3l0.4,0.1c0.1,0,0.3,0.1,0.4,0.1c0.1,0,0.3,0.1,0.4,0.1c0.1,0,0.3,0,0.4,0.1
					c0.1,0,0.3,0,0.4,0l0.4,0c0.3,0,0.6,0,0.9-0.1c0.3-0.1,0.6-0.1,0.8-0.2c0.5-0.2,1-0.5,1.4-0.8c0.4-0.3,0.8-0.6,1.2-1
					c0.7-0.7,1.3-1.5,1.9-2.5c0.6-0.9,1.1-1.9,1.6-3.1c0.5-1.1,0.9-2.3,1.3-3.6c0.8-2.6,1.3-5.4,1.9-8.2l0.6-3.2l0.5-2.9
					c0.7-3.8,1.4-7.6,2.3-11.3c0.4-1.8,0.9-3.6,1.5-5.4c0.6-1.7,1.2-3.4,2-4.9c0.2-0.4,0.4-0.7,0.6-1.1c0-0.1,0.1-0.2,0.2-0.3
					l0.1-0.1c0,0,0-0.1,0.1-0.1c0.1-0.1,0.1-0.2,0.2-0.3c0.3-0.4,0.7-0.8,1-1.2c0.4-0.4,0.8-0.7,1.3-0.9c0.5-0.2,1-0.3,1.5-0.4
					c0.5,0,1.1,0.1,1.6,0.3c0.5,0.2,0.9,0.6,1.2,1c0.3,0.4,0.6,0.9,0.9,1.3c0.1,0.2,0.2,0.5,0.3,0.7c0,0.1,0.1,0.1,0.1,0.2l0.1,0.2
					c0.1,0.2,0.2,0.4,0.2,0.6c0.6,1.6,1,3.4,1.4,5.2c0.4,1.8,0.7,3.7,1,5.5c0.5,3.8,0.9,7.6,1.3,11.4c0.3,3.9,0.6,7.8,0.9,11.7
					c0.3,3.9,0.7,7.9,1.1,11.8l0.2,1.5l0.1,1c0,0.3,0.1,0.7,0.1,1.1c0.2,1.4,0.4,2.8,0.7,4.2c0.5,2.7,1.2,5.4,2.2,7.6
					c0.5,1.1,1,2.2,1.5,3.1c0.6,0.9,1.2,1.8,1.9,2.6c0.7,0.8,1.5,1.5,2.4,2c0.9,0.5,2,0.9,3.2,1c0.1,0,0.3,0,0.4,0
					c0.1,0,0.3,0,0.4,0c0.1,0,0.3,0,0.4-0.1c0.1,0,0.3-0.1,0.4-0.1c0.5-0.2,1-0.4,1.5-0.7c0.9-0.5,1.6-1.2,2.2-2
					c0.7-0.8,1.2-1.6,1.8-2.5c0.3-0.5,0.6-1,0.8-1.5c0.3-0.5,0.5-1.1,0.8-1.6c1-2.3,1.8-5,2.5-7.7c0.3-1.4,0.7-2.8,1-4.1l0.4-1.7
					l0.3-1.4c0.8-3.8,1.6-7.7,2.5-11.4s1.8-7.5,2.9-11.1c0.6-1.8,1.2-3.5,1.8-5.2c0.3-0.8,0.7-1.6,1.1-2.4c0.2-0.4,0.4-0.7,0.6-1.1
					c0.1-0.2,0.2-0.3,0.3-0.5c0.1-0.1,0.1-0.2,0.2-0.2l0.1-0.1l0.1-0.1c0.3-0.4,0.6-0.9,1-1.2c0.4-0.4,0.8-0.7,1.4-0.8
					c0.3-0.1,0.5-0.1,0.8-0.2c0.3,0,0.5,0,0.8,0c0.5,0.1,1.1,0.2,1.5,0.4c0.5,0.2,0.9,0.5,1.3,0.9c0.1,0,0.1,0.1,0.1,0.1
					s0.1,0.1,0.1,0.1c0.1,0.1,0.2,0.2,0.3,0.4c0.1,0.1,0.2,0.3,0.3,0.4l0.2,0.2l0.2,0.2c0.4,0.6,0.9,1.3,1.2,2
					c0.4,0.8,0.8,1.5,1.1,2.4c0.7,1.7,1.4,3.5,2.1,5.3c0.7,1.9,1.4,3.8,2.4,5.8c0.5,1,1,2,1.7,3c0.2,0.2,0.3,0.5,0.5,0.8l0.3,0.4
					l0.3,0.4c0.2,0.2,0.4,0.5,0.6,0.7l0.4,0.4l0.2,0.2l0.2,0.2c0.5,0.5,1.1,0.9,1.7,1.3c0.6,0.4,1.3,0.7,2,1
					c0.2,0.1,0.3,0.1,0.5,0.2c0.2,0.1,0.4,0.1,0.5,0.2l0.5,0.1c0.2,0,0.4,0.1,0.5,0.1c0.4,0.1,0.7,0.1,1.1,0.1c0.2,0,0.4,0,0.5,0
					l0.3,0l0.1,0H275.6z M275.5,102.3h-0.2l-0.3,0c-0.2,0-0.4,0-0.7,0c-0.5-0.1-0.9-0.1-1.4-0.2c-0.2,0-0.5-0.1-0.7-0.1
					c-0.2-0.1-0.5-0.1-0.7-0.2c-0.2-0.1-0.5-0.1-0.7-0.2c-0.2-0.1-0.5-0.2-0.7-0.2c-0.9-0.3-1.8-0.8-2.5-1.3
					c-0.2-0.1-0.4-0.3-0.6-0.4c-0.2-0.1-0.4-0.3-0.5-0.4l-0.5-0.4c-0.2-0.1-0.3-0.3-0.5-0.4l-0.2-0.2l-0.2-0.2
					c-0.1-0.1-0.3-0.3-0.4-0.4l-0.4-0.4l-0.2-0.2l-0.2-0.2l-0.4-0.4l-0.3-0.4l-0.2-0.2l-0.5-0.7c-0.8-1.2-1.4-2.3-1.9-3.4
					c-0.5-1.1-1-2.1-1.4-3.1c-0.4-1-0.8-2-1.1-2.9c-0.7-1.9-1.3-3.6-2-5.2c-0.3-0.8-0.7-1.5-1-2.2c-0.3-0.7-0.7-1.2-1-1.7l-0.1-0.2
					l-0.1-0.2c-0.1-0.1-0.2-0.2-0.2-0.3c0,0-0.1-0.1-0.1-0.1l-0.1-0.1c0,0,0,0-0.1,0c0,0,0,0,0,0l0,0c-0.1-0.1-0.3-0.2-0.4-0.3
					c-0.2-0.1-0.3-0.1-0.5-0.1c-0.2,0-0.4,0-0.5,0c-0.3,0.1-0.6,0.4-0.8,0.7c0,0,0,0,0,0l-0.1,0.1c0,0.1-0.1,0.1-0.1,0.2l-0.1,0.2
					l-0.1,0.2c-0.2,0.3-0.3,0.6-0.5,0.9c-0.3,0.7-0.7,1.4-1,2.2c-0.6,1.5-1.2,3.2-1.7,4.9c-1.1,3.5-2,7.1-2.8,10.8
					c-0.9,3.7-1.6,7.5-2.5,11.4l-0.3,1.5l-0.4,1.9c-0.4,1.7-0.8,3.5-1.3,5.2c-0.4,1.7-0.9,3.4-1.5,5c-0.5,1.6-1.1,3.1-1.8,4.4
					c-0.3,0.7-0.7,1.3-1,1.8c-0.4,0.6-0.7,1.1-1.1,1.6c-0.7,1-1.5,1.8-2.3,2.4s-1.7,1.2-2.7,1.6c-0.2,0.1-0.5,0.2-0.8,0.3
					c-0.3,0.1-0.6,0.2-0.9,0.2c-0.2,0-0.3,0.1-0.5,0.1l-0.5,0c-0.2,0-0.3,0-0.5,0c-0.2,0-0.3,0-0.5,0c-1.3,0-2.6-0.4-3.7-0.8
					c-1.1-0.5-2-1.1-2.9-1.8c-0.4-0.4-0.8-0.7-1.2-1.2c-0.4-0.4-0.8-0.9-1.2-1.3c-0.7-1-1.4-2.1-2.1-3.3c-1.3-2.5-2.2-5.7-2.9-9.1
					c-0.3-1.7-0.6-3.4-0.9-5.2c-0.1-0.4-0.1-0.9-0.2-1.3l-0.2-1.1l-0.2-1.5c-0.5-4-0.8-8-1.1-11.9c-0.3-3.9-0.6-7.8-0.9-11.6
					c-0.3-3.8-0.7-7.6-1.3-11.3c-0.3-1.8-0.6-3.6-0.9-5.3c-0.4-1.7-0.8-3.3-1.3-4.8c-0.1-0.2-0.1-0.3-0.2-0.5l-0.1-0.2
					c0-0.1-0.1-0.2-0.1-0.2c-0.1-0.2-0.2-0.3-0.3-0.4c-0.1-0.1-0.2-0.3-0.4-0.3c-0.2-0.1-0.3-0.1-0.5-0.1c-0.4,0-0.7,0.2-1,0.4
					c-0.1,0.1-0.2,0.3-0.3,0.4c0,0,0,0.1-0.1,0.1c0,0,0,0,0,0l0,0.1c0,0.1-0.1,0.1-0.1,0.2c-0.2,0.3-0.3,0.6-0.5,0.9
					c-0.7,1.3-1.3,2.8-1.8,4.4c-0.5,1.6-1,3.3-1.4,5.1c-0.9,3.5-1.6,7.3-2.3,11.1l-0.5,2.9l-0.6,3.4c-0.3,1.7-0.7,3.5-1.1,5.2
					c-0.2,0.9-0.4,1.7-0.6,2.5c-0.1,0.4-0.2,0.8-0.3,1.2c-0.1,0.4-0.2,0.8-0.4,1.2c-0.5,1.6-1.1,3-1.7,4.3c-0.3,0.6-0.7,1.2-1,1.8
					c-0.4,0.5-0.7,1-1.1,1.5c-0.8,0.9-1.6,1.7-2.5,2.3c-0.9,0.6-1.9,1.2-3.1,1.5c-0.6,0.2-1.3,0.3-2,0.3l-0.5,0c-0.2,0-0.3,0-0.5,0
					c-0.2,0-0.3,0-0.5,0l-0.2,0c-0.1,0-0.2,0-0.2,0c-0.3-0.1-0.6-0.1-0.9-0.2c-0.3-0.1-0.6-0.2-0.9-0.3c-0.6-0.2-1.1-0.4-1.6-0.7
					c-0.3-0.1-0.5-0.3-0.7-0.4c-0.2-0.2-0.5-0.3-0.7-0.5l-0.3-0.3c-0.1-0.1-0.2-0.2-0.3-0.3c-0.2-0.2-0.4-0.4-0.7-0.6
					c-0.9-0.8-1.7-1.8-2.4-2.9c-0.8-1.1-1.5-2.4-2.1-3.9s-1.2-3.1-1.7-4.7c-0.5-1.7-1-3.4-1.4-5.1l-0.7-2.7c-0.1-0.3-0.2-0.7-0.3-1
					c-0.1-0.3-0.2-0.7-0.4-1c-0.1-0.2-0.2-0.3-0.3-0.4c-0.1-0.1-0.1-0.1-0.2-0.1c-0.1,0-0.2,0-0.3,0c-0.2,0-0.3,0.2-0.4,0.3
					c-0.1,0.1-0.2,0.3-0.3,0.5c-0.2,0.3-0.3,0.7-0.4,1l-0.2,0.5l-0.1,0.2l-0.2,0.4l-0.4,0.8c-1,2-2.1,4.1-3.6,6.2
					c-0.7,1-1.6,2.1-2.6,3c-1,1-2.1,1.9-3.3,2.8c-1.2,0.8-2.5,1.6-3.9,2.1c-1.4,0.6-2.9,1-4.3,1.2c-0.7,0.1-1.4,0.2-2.1,0.2
					c-0.4,0-0.7,0-1,0l-0.5,0h-26.8v1.6h26.8l0.5,0c0.4,0,0.7,0,1.1,0c0.8,0,1.5-0.1,2.3-0.3c1.5-0.3,3.1-0.7,4.6-1.3
					c1.5-0.6,2.9-1.4,4.2-2.3c1.3-0.9,2.5-1.9,3.5-2.9c1-1,1.9-2.1,2.7-3.2c1.6-2.2,2.8-4.3,3.7-6.4L163,88l0.6,2.7
					c0.5,1.9,1,3.8,1.5,5.6s1.2,3.6,1.9,5.1c0.7,1.6,1.5,3,2.4,4.1c0.9,1.2,1.8,2.2,2.7,3c0.2,0.2,0.5,0.4,0.7,0.6
					c0.1,0.1,0.2,0.2,0.4,0.3l0.4,0.2c0.1,0.1,0.3,0.2,0.4,0.2l0.4,0.2c0.3,0.1,0.5,0.3,0.8,0.4c0.1,0.1,0.3,0.1,0.4,0.2l0.4,0.2
					c0.1,0.1,0.3,0.1,0.4,0.2l0.2,0.1l0.2,0.1c0.3,0.1,0.6,0.2,0.9,0.2c0.3,0.1,0.7,0.1,1,0.2c0.1,0,0.2,0,0.3,0l0.3,0
					c0.2,0,0.3,0,0.5,0c0.2,0,0.3,0,0.5,0h0.5c0.7,0,1.4-0.1,2.1-0.3c1.3-0.3,2.4-0.8,3.4-1.3c1-0.6,1.9-1.3,2.7-2.2
					c0.4-0.5,0.8-1,1.2-1.5c0.4-0.6,0.8-1.2,1.2-1.8c0.7-1.3,1.4-2.9,2-4.6c0.1-0.4,0.3-0.9,0.4-1.3c0.1-0.4,0.3-0.9,0.4-1.3
					c0.2-0.9,0.5-1.8,0.7-2.8c0.4-1.9,0.8-3.8,1.2-5.7l0.4-2.1l0.3-1.5l0.5-2.9c0.7-3.8,1.4-7.5,2.3-11c0.4-1.7,0.9-3.4,1.4-5
					c0.5-1.6,1.1-3,1.7-4.2l0.6-1.1l0.2,0.6c0.5,1.3,0.9,2.9,1.2,4.6c0.4,1.7,0.7,3.4,0.9,5.2c0.5,3.6,0.9,7.4,1.2,11.2
					c0.3,3.8,0.6,7.7,0.9,11.6s0.7,7.9,1.1,12l0.2,1.5l0.2,1.2c0.1,0.5,0.1,1,0.2,1.5c0.3,1.9,0.6,3.8,1,5.7
					c0.8,3.7,1.9,7.2,3.3,9.8c0.7,1.3,1.5,2.5,2.3,3.5l0.3,0.4l0.3,0.3c0.1,0.1,0.2,0.2,0.3,0.3c0.1,0.1,0.2,0.2,0.3,0.3
					c0.4,0.4,0.9,0.8,1.4,1.1c0.9,0.7,2,1.2,3.1,1.7c1.2,0.4,2.5,0.7,3.9,0.8l0.5,0c0.2,0,0.4,0,0.5,0l0.5,0c0.2,0,0.3,0,0.5-0.1
					c0.3,0,0.6-0.1,0.9-0.2c0.3-0.1,0.6-0.1,0.8-0.2c1.1-0.3,2-0.8,2.9-1.4c0.9-0.6,1.8-1.4,2.6-2.3c0.4-0.5,0.8-1,1.2-1.6
					c0.4-0.6,0.8-1.2,1.1-2c0.4-0.7,0.7-1.4,1.1-2.3c0.2-0.4,0.3-0.8,0.5-1.2c0.2-0.4,0.3-0.8,0.5-1.3c0.6-1.7,1.1-3.6,1.6-5.4
					c0.5-1.9,1-3.8,1.4-5.7l0.4-2l0.3-1.5c0.8-3.9,1.6-7.7,2.5-11.4c0.8-3.7,1.7-7.3,2.8-10.7c0.5-1.7,1.1-3.3,1.7-4.8
					c0.3-0.7,0.6-1.4,0.9-2c0.2-0.3,0.3-0.6,0.5-0.9l0.1-0.2l0.1-0.2c0-0.1,0.1-0.1,0.1-0.2l0.1-0.1c0,0,0,0,0,0c0,0,0,0,0.1,0.1
					c0,0,0.1,0.1,0.1,0.1c0.1,0.1,0.1,0.1,0.2,0.2l0.1,0.1l0.1,0.1c0.3,0.4,0.6,0.9,0.9,1.5c0.3,0.6,0.6,1.3,1,2
					c0.6,1.5,1.3,3.2,2,5.1c0.4,0.9,0.7,1.9,1.1,3c0.4,1,0.9,2.1,1.4,3.2c0.6,1.1,1.2,2.3,2,3.5l0.3,0.5l0.2,0.2l0.2,0.2l0.4,0.5
					l0.4,0.5l0.2,0.2l0.2,0.2l0.4,0.5c0.2,0.2,0.3,0.3,0.5,0.5l0.2,0.2l0.3,0.2c0.2,0.2,0.3,0.3,0.5,0.5c0.2,0.2,0.4,0.3,0.6,0.5
					c0.2,0.2,0.4,0.3,0.6,0.4c0.2,0.1,0.4,0.3,0.6,0.4c0.9,0.6,1.8,1,2.8,1.4c0.2,0.1,0.5,0.2,0.8,0.3c0.3,0.1,0.5,0.2,0.8,0.2
					c0.3,0.1,0.5,0.1,0.8,0.2c0.3,0.1,0.5,0.1,0.8,0.1c0.5,0.1,1,0.1,1.5,0.2c0.2,0,0.5,0,0.7,0l0.5,0h23.6v-1.6H275.5z M252.3,76.7
					L252.3,76.7C252.3,76.7,252.3,76.7,252.3,76.7z M252.3,76.7C252.3,76.7,252.3,76.7,252.3,76.7z"/>
			</defs>
			<clipPath id="SVGID_00000183208443827576657940000008781449037726717328_">
				<use xlink:href="#SVGID_00000126287638719214714690000004405497240532654487_"  style="overflow:visible;"/>
			</clipPath>
			<g style="clip-path:url(#SVGID_00000183208443827576657940000008781449037726717328_);">
				
					<pattern  id="SVGID_00000109743871847796410490000015962215159603526272_" xlink:href="#_x34_a514b5b4b" patternTransform="matrix(1.3333 0 0 1.3333 2864.667 5081.9292)">
				</pattern>
				<path style="fill:url(#SVGID_00000109743871847796410490000015962215159603526272_);" d="M112.9,42.6h186v91.7h-186V42.6z"/>
			</g>
		</g>
	</g>
</g>
</svg>
